# Blender v2.93.7 OBJ File: 'armor.blend'
# www.blender.org
v -0.252563 4.259953 8.067897
v 5.859970 5.545211 17.749372
v -0.103477 5.274631 18.421698
v -9.495906 -8.727911 25.682806
v -14.117578 -4.872138 25.951735
v -19.782852 -0.001689 31.464798
v 2.580074 4.462889 33.885166
v -3.085201 4.327599 33.885166
v -0.103477 6.830468 25.817270
v -9.644992 7.236339 25.951735
v -14.415750 4.598179 26.355129
v -14.266664 -0.069335 21.245462
v -0.252563 -8.930845 18.287233
v -6.365096 -7.307363 17.749372
v 8.543522 7.777500 25.817270
v -0.401649 -8.051459 7.798967
v 6.158142 -7.104427 8.067897
v 9.885298 -0.001689 7.933432
v 9.736212 -0.069335 12.774170
v 6.009056 -7.239717 17.614908
v 3.474592 -3.654526 32.809448
v 4.667280 -0.136980 34.288563
v 7.947176 -0.001689 33.750702
v -5.619665 -0.136980 34.288563
v -8.452303 -0.136980 33.616238
v 18.234123 0.133601 31.464798
v 12.568848 -5.142718 25.951735
v 8.394436 -8.457331 25.951735
v 12.568848 -0.136980 21.379927
v 12.568848 4.530534 26.220665
v -12.179457 -0.272270 17.614908
v -11.732199 -0.069335 12.370775
v -6.514182 5.342276 17.480444
v 5.859970 3.177632 8.067897
v -0.401649 -0.204625 32.809448
v -5.768751 -7.036782 7.664502
v 10.332556 -0.204625 17.749372
v -3.532459 -3.654526 32.943913
v 12.867020 0.133601 34.019630
v -5.917838 3.312922 8.067897
v -11.881285 -0.136980 8.067897
v -0.401649 -9.472006 25.548340
v -13.968491 -0.069335 33.616238
v -14.117578 -4.872138 25.951735
v -19.782852 -0.001689 31.464798
v -19.782852 -0.001689 31.464798
v 2.580074 4.462889 33.885166
v -3.085201 4.327599 33.885166
v -14.415750 4.598179 26.355129
v -14.266664 -0.069335 21.245462
v -14.266664 -0.069335 21.245462
v 6.158142 -7.104427 8.067897
v 9.885298 -0.001689 7.933432
v 9.885298 -0.001689 7.933432
v 3.474592 -3.654526 32.809448
v 4.667280 -0.136980 34.288563
v 4.667280 -0.136980 34.288563
v -12.179457 -0.272270 17.614908
v -11.732199 -0.069335 12.370775
v -0.252563 4.259953 8.067897
v 5.859970 3.177632 8.067897
v 7.947176 -0.001689 33.750702
v 12.867020 0.133601 34.019630
v -5.917838 3.312922 8.067897
v -0.401649 -8.051459 7.798967
v -5.768751 -7.036782 7.664502
v -8.452303 -0.136980 33.616238
v -13.968491 -0.069335 33.616238
v -5.619665 -0.136980 34.288563
v -5.619665 -0.136980 34.288563
v 18.234123 0.133601 31.464798
v 18.234123 0.133601 31.464798
v -11.881285 -0.136980 8.067897
v -11.881285 -0.136980 8.067897
v -3.532459 -3.654526 32.943913
v 9.736212 -0.069335 12.774170
v 12.568848 -5.142718 25.951735
v 12.568848 4.530534 26.220665
v 10.332556 -0.204625 17.749372
v 12.568848 -0.136980 21.379927
v 12.568848 -0.136980 21.379927
vt 0.769022 0.125000
vt 0.774457 0.414474
vt 0.845109 0.401316
vt 0.046196 0.782895
vt 0.111413 0.638158
vt 0.165761 0.625000
vt 0.774457 0.625000
vt 0.736413 0.848684
vt 0.807065 0.848684
vt 0.611413 0.493421
vt 0.605978 0.638158
vt 0.665761 0.638158
vt 0.198370 0.401316
vt 0.274457 0.414474
vt 0.872283 0.625000
vt 0.388587 0.125000
vt 0.345109 0.125000
vt 0.269022 0.125000
vt 0.345109 0.401316
vt 0.345109 0.125000
vt 0.388587 0.256579
vt 0.366848 0.848684
vt 0.328804 0.861842
vt 0.317935 0.822368
vt 0.388587 0.125000
vt 0.676630 0.848684
vt 0.709239 0.861842
vt 0.372283 0.638158
vt 0.421196 0.638158
vt 0.486413 0.782895
vt 0.546196 0.782895
vt 0.921196 0.638158
vt 0.921196 0.506579
vt 0.986413 0.782895
vt 0.698370 0.388158
vt 0.638587 0.243421
vt 0.633152 0.401316
vt 0.845109 0.125000
vt 0.269022 0.822368
vt 0.307065 0.848684
vt 0.236413 0.848684
vt 0.209239 0.125000
vt 0.269022 0.125000
vt 0.894022 0.401316
vt 0.769022 0.822368
vt 0.730978 0.822368
vt 0.817935 0.822368
vt 0.888587 0.125000
vt 0.769022 0.125000
vt 0.845109 0.125000
vt 0.421196 0.506579
vt 0.426630 0.861842
vt 0.394022 0.401316
vt 0.866848 0.848684
vt 0.638587 0.125000
vt 0.703804 0.125000
vt 0.269022 0.625000
vt 0.209239 0.861842
vt 0.888587 0.256579
vt 0.769022 0.125000
vt 0.709239 0.125000
vt 0.611413 0.848684
vt 0.703804 0.125000
vt 0.926630 0.861842
vt 0.176630 0.848684
vt 0.421196 0.638158
vt 0.421196 0.506579
vt 0.421196 0.638158
vt 0.111413 0.493421
vt 0.133152 0.401316
vt 0.138587 0.243421
vt 0.317935 0.822368
vt 0.328804 0.861842
vt 0.638587 0.125000
vt 0.230978 0.822368
vt 0.605978 0.638158
vt 0.611413 0.638158
vt 0.546196 0.782895
vt 0.888587 0.125000
vt 0.921196 0.638158
vt 0.921196 0.638158
vt 0.986413 0.782895
vt 0.828804 0.861842
vt 0.209239 0.861842
vt 0.230978 0.822368
vt 0.138587 0.125000
vt 0.111413 0.848684
vt 0.111413 0.493421
vt 0.111413 0.638158
vt 0.105978 0.638158
vn -0.0006 0.9833 -0.1820
vn -0.0206 0.9867 -0.1609
vn 0.3662 0.8946 -0.2560
vn -0.3345 -0.7619 0.5546
vn -0.6266 -0.7325 -0.2659
vn -0.3836 -0.9088 0.1638
vn -0.0329 0.9981 0.0521
vn -0.2006 0.8323 0.5167
vn 0.1743 0.8238 0.5394
vn -0.5878 0.6669 -0.4579
vn -0.4879 0.8677 -0.0953
vn -0.3141 0.9475 0.0594
vn -0.5004 -0.8409 -0.2058
vn 0.0089 -0.9926 -0.1210
vn 0.3347 0.9418 0.0299
vn 0.0091 0.0109 -0.9999
vn 0.0472 -0.0436 -0.9979
vn 0.0110 0.0228 -0.9997
vn 0.5699 -0.8051 -0.1642
vn 0.5816 -0.8135 0.0002
vn 0.8762 -0.4811 -0.0292
vn 0.1376 -0.6203 0.7722
vn 0.1634 -0.4290 0.8884
vn 0.1782 -0.6944 0.6972
vn 0.8854 -0.4642 0.0208
vn -0.2429 0.5943 0.7667
vn -0.2256 0.2139 0.9504
vn 0.4188 -0.8964 0.1447
vn 0.6018 -0.7579 -0.2519
vn 0.3571 -0.7587 0.5449
vn -0.2606 0.7889 0.5564
vn 0.6197 0.7335 -0.2790
vn 0.6545 0.5947 -0.4669
vn 0.3406 0.7985 0.4963
vn -0.3211 0.9190 -0.2286
vn -0.6083 0.7892 -0.0843
vn -0.6815 0.6907 -0.2416
vn 0.4704 0.8683 -0.1573
vn 0.0099 -0.1197 0.9927
vn -0.1415 -0.1356 0.9806
vn 0.1407 -0.1490 0.9788
vn -0.4989 -0.8658 -0.0382
vn -0.0177 -0.9987 -0.0466
vn 0.7509 0.6019 -0.2714
vn 0.1709 -0.1169 0.9783
vn -0.1606 -0.1805 0.9704
vn -0.0045 0.0184 -0.9998
vn 0.0096 0.0544 -0.9984
vn 0.6551 -0.5888 -0.4734
vn 0.1646 -0.7194 0.6748
vn 0.8021 -0.5379 -0.2590
vn 0.1927 0.5920 0.7826
vn 0.0032 0.0324 -0.9995
vn 0.0000 0.0000 -1.0000
vn -0.0110 -0.9565 0.2916
vn 0.2687 -0.1326 0.9540
vn 0.7297 0.6783 -0.0858
vn 0.0431 0.0963 -0.9944
vn -0.1236 0.7522 0.6472
vn -0.3768 0.9087 -0.1796
vn 0.1350 0.7594 0.6365
vn -0.1358 -0.6655 0.7338
vn 0.8983 0.0122 -0.4391
vn 1.0000 0.0000 0.0000
vn 0.8892 0.0127 -0.4573
vn -0.6771 -0.5950 -0.4331
vn -0.7449 -0.6171 -0.2534
vn -0.7650 -0.6429 -0.0373
vn -0.2738 -0.1713 0.9464
vn -0.5007 0.8656 0.0037
vn -0.3221 -0.7747 0.5441
vn -0.8931 -0.0089 -0.4498
vn -0.9055 -0.0104 -0.4241
vn -0.6934 0.0089 -0.7204
vn 0.6201 0.7839 0.0300
vn 0.6876 0.0202 -0.7258
vn 0.1536 0.1553 0.9758
vn -0.2058 -0.4536 0.8671
vn -0.7469 -0.6638 0.0363
vn -0.1498 -0.7089 0.6892
vn -0.9995 -0.0314 -0.0004
s 1
f 60/1/1 3/2/2 2/3/3
f 45/4/4 44/5/5 4/6/6
f 9/7/7 48/8/8 47/9/9
f 50/10/10 11/11/11 10/12/12
f 14/13/13 13/14/14 4/6/6
f 9/7/7 47/9/9 15/15/15
f 53/16/16 52/17/17 16/18/18
f 20/19/19 17/20/20 76/21/21
f 3/2/2 9/7/7 15/15/15
f 62/22/22 56/23/23 55/24/24
f 54/25/25 76/21/21 17/20/20
f 67/26/26 69/27/27 48/8/8
f 28/28/28 77/29/29 72/30/30
f 11/11/11 46/31/31 10/12/12
f 15/15/15 78/32/32 80/33/33
f 71/34/34 78/32/32 15/15/15
f 33/35/35 59/36/36 58/37/37
f 60/1/1 2/3/3 61/38/38
f 35/39/39 7/40/40 8/41/41
f 14/13/13 66/42/42 65/43/43
f 2/3/3 15/15/15 79/44/44
f 35/45/39 75/46/45 21/47/46
f 53/48/16 1/49/47 34/50/48
f 81/51/49 77/29/29 28/28/28
f 62/22/22 28/28/28 63/52/50
f 20/19/19 76/21/21 37/53/51
f 47/9/9 23/54/52 15/15/15
f 1/49/47 73/55/53 64/56/54
f 14/13/13 65/43/43 13/14/14
f 20/19/19 65/43/43 17/20/20
f 15/15/15 80/33/33 79/44/44
f 13/14/14 42/57/55 4/6/6
f 33/35/35 10/12/12 3/2/2
f 20/19/19 37/53/51 28/28/28
f 8/41/41 70/58/56 35/39/39
f 2/3/3 19/59/57 61/38/38
f 73/55/53 53/48/16 16/60/18
f 73/55/53 16/60/18 36/61/58
f 10/12/12 68/62/59 67/26/26
f 33/35/35 40/63/60 59/36/36
f 39/64/61 15/15/15 23/54/52
f 25/65/62 4/6/6 42/57/55
f 27/66/63 29/67/64 30/68/65
f 51/69/66 4/6/6 44/5/5
f 39/64/61 71/34/34 15/15/15
f 51/69/66 31/70/67 4/6/6
f 66/42/42 14/13/13 32/71/68
f 33/35/35 58/37/37 10/12/12
f 58/37/37 50/10/10 10/12/12
f 9/7/7 10/12/12 48/8/8
f 31/70/67 32/71/68 14/13/13
f 35/39/39 21/72/46 57/73/69
f 46/31/31 68/62/59 10/12/12
f 74/74/70 59/36/36 40/63/60
f 42/57/55 55/24/24 38/75/71
f 60/1/1 33/35/35 3/2/2
f 49/76/72 5/77/73 6/78/74
f 28/28/28 72/30/30 63/52/50
f 61/38/38 19/59/57 18/79/75
f 27/80/63 30/81/65 26/82/76
f 47/9/9 22/83/77 23/54/52
f 55/24/24 42/57/55 28/28/28
f 10/12/12 67/26/26 48/8/8
f 38/75/71 24/84/78 25/65/62
f 2/3/3 79/44/44 19/59/57
f 10/12/12 9/7/7 3/2/2
f 1/49/47 53/48/16 73/55/53
f 70/58/56 75/85/45 35/39/39
f 41/86/79 66/42/42 32/71/68
f 31/70/67 14/13/13 4/6/6
f 60/1/1 40/63/60 33/35/35
f 37/53/51 81/51/49 28/28/28
f 28/28/28 62/22/22 55/24/24
f 43/87/80 45/4/4 4/6/6
f 25/65/62 43/87/80 4/6/6
f 12/88/81 5/89/73 49/90/72
f 35/39/39 57/73/69 7/40/40
f 28/28/28 42/57/55 13/14/14
f 20/19/19 28/28/28 13/14/14
f 20/19/19 13/14/14 65/43/43
f 3/2/2 15/15/15 2/3/3
f 42/57/55 38/75/71 25/65/62
