# Blender v2.93.7 OBJ File: 'doomguy2.blend'
# www.blender.org
o head_Plane.001
v 2.900000 -5.075000 40.800003
v 13.100002 -6.250000 42.674999
v 10.025002 -3.700000 55.400009
v 6.100001 -2.900000 55.650005
v 8.925002 -6.950000 42.600006
v 1.175000 -3.125000 40.800003
v 2.900000 -5.075000 40.800003
v 13.100002 -6.250000 42.674999
v 12.525002 -7.049999 51.275013
v 10.025002 -3.700000 55.400009
v 5.500001 -3.975000 53.925011
v 6.100001 -2.900000 55.650005
v 14.000002 -7.475000 46.925003
v 8.925002 -6.950000 42.600006
v 2.025000 -5.375000 46.100002
v -0.050001 -3.250000 44.202850
v 5.025001 -4.150000 52.925011
v 5.425001 -6.075000 47.375004
v 6.350001 -6.299999 48.599998
v 7.425001 -6.100000 50.050003
v 6.800001 -4.575000 52.675007
v 7.775001 -5.475000 51.400002
v 1.625000 -3.350000 45.950001
v 1.400000 -1.875000 46.525002
v 7.400001 -5.525000 49.875004
v 3.750000 -4.975000 49.525005
v 5.175001 -3.750000 52.475006
v 5.575001 -5.525000 47.424999
v 6.425001 -5.725000 48.550003
v 2.500000 -4.875000 46.400005
v 6.825001 -4.150000 52.250011
v 7.700001 -4.975000 51.075001
v 2.125000 -3.050000 46.299999
v 2.075000 -1.700000 46.775002
v 5.500001 -3.100000 53.900013
v 5.950000 -2.325000 55.200012
v 12.225003 -6.525000 51.424999
v 7.775001 -6.150000 50.050003
v 15.550002 -0.150000 51.425011
v 14.975002 -0.150000 51.575012
v 2.900000 5.075000 40.800003
v 13.100002 6.250000 42.674999
v 10.025002 3.700000 55.400009
v 6.100001 2.900000 55.650005
v 8.925002 6.950000 42.600006
v 1.175000 3.125000 40.800003
v 2.900000 -0.000000 40.800003
v 15.900003 -0.000000 42.674999
v 10.800002 -0.000000 55.300007
v 6.100001 -0.000000 55.650005
v 1.175000 -0.000000 40.800003
v -0.050001 -0.000000 44.152847
v 16.950005 0.000000 46.950001
v 6.100001 -0.000000 55.650005
v 5.500001 -0.000000 53.850002
v 14.975002 -0.000000 51.575001
v 15.900003 -0.000000 42.674999
v 2.900000 5.075000 40.800003
v 13.100002 6.250000 42.674999
v 12.525002 7.049999 51.275013
v 10.025002 3.700000 55.400009
v 5.500001 3.975000 53.925011
v 6.100001 2.900000 55.650005
v 14.000002 7.475000 46.925003
v 8.925002 6.950000 42.600006
v 2.025000 5.375000 46.100002
v -0.050001 3.250000 44.202850
v 5.025001 4.150000 52.925011
v 5.425001 6.075000 47.375004
v 1.299999 -0.000000 46.500004
v 6.350001 6.299999 48.599998
v 7.425001 6.100000 50.050003
v 5.025001 -0.000000 52.925011
v 6.800001 4.575000 52.675007
v 7.775001 5.475000 51.400002
v 2.075000 -0.000000 46.775002
v 1.625000 3.350000 45.950001
v 1.400000 1.875000 46.525002
v 2.850000 -0.000000 49.550003
v 7.400001 5.525000 49.875004
v 3.750000 4.975000 49.525005
v 5.175001 3.750000 52.475006
v 5.575001 5.525000 47.424999
v 6.425001 5.725000 48.550003
v 5.050001 -0.000000 52.475006
v 2.500000 4.875000 46.400005
v 6.825001 4.150000 52.250011
v 7.700001 4.975000 51.075001
v 2.125000 3.050000 46.299999
v 2.075000 1.700000 46.775002
v 5.950001 -0.000000 55.225010
v 5.500001 3.100000 53.900013
v 5.950000 2.325000 55.200012
v 15.550002 0.000000 51.425011
v 12.225003 6.525000 51.424999
v 7.775001 6.150000 50.050003
v 15.550002 0.150000 51.425011
v 14.975002 0.150000 51.575012
v 1.175000 -0.000000 40.800003
v 1.175000 -3.125000 40.800003
v 1.175000 -3.125000 40.800003
v 1.175000 -3.125000 40.800003
v 13.100002 -6.250000 42.674999
v 6.100001 -2.900000 55.650005
v 5.500001 -3.975000 53.925011
v 5.025001 -4.150000 52.925011
v 5.025001 -4.150000 52.925011
v 6.800001 -4.575000 52.675007
v 7.775001 -5.475000 51.400002
v 6.350001 -6.299999 48.599998
v 5.425001 -6.075000 47.375004
v 5.025001 -0.000000 52.925011
v 7.425001 -6.100000 50.050003
v 1.625000 -3.350000 45.950001
v 1.625000 -3.350000 45.950001
v 5.175001 -3.750000 52.475006
v 6.825001 -4.150000 52.250011
v 7.700001 -4.975000 51.075001
v 7.400001 -5.525000 49.875004
v 6.425001 -5.725000 48.550003
v 5.575001 -5.525000 47.424999
v 5.050001 -0.000000 52.475006
v 2.500000 -4.875000 46.400005
v 2.125000 -3.050000 46.299999
v 2.075000 -1.700000 46.775002
v 2.075000 -0.000000 46.775002
v 2.025000 -5.375000 46.100002
v -0.050001 -3.250000 44.202850
v 12.225003 -6.525000 51.424999
v 12.225003 -6.525000 51.424999
v 15.550002 0.000000 51.425011
v 15.550002 -0.150000 51.425011
v 12.525002 -7.049999 51.275013
v 7.775001 -6.150000 50.050003
v 14.975002 -0.150000 51.575012
v 14.975002 -0.000000 51.575001
v 1.175000 3.125000 40.800003
v 1.175000 3.125000 40.800003
v 1.175000 3.125000 40.800003
v 13.100002 6.250000 42.674999
v 6.100001 2.900000 55.650005
v 5.500001 3.975000 53.925011
v 5.025001 4.150000 52.925011
v 5.025001 4.150000 52.925011
v 6.800001 4.575000 52.675007
v 7.775001 5.475000 51.400002
v 6.350001 6.299999 48.599998
v 5.425001 6.075000 47.375004
v 7.425001 6.100000 50.050003
v 1.625000 3.350000 45.950001
v 1.625000 3.350000 45.950001
v 5.175001 3.750000 52.475006
v 6.825001 4.150000 52.250011
v 7.700001 4.975000 51.075001
v 7.400001 5.525000 49.875004
v 6.425001 5.725000 48.550003
v 5.575001 5.525000 47.424999
v 2.500000 4.875000 46.400005
v 2.125000 3.050000 46.299999
v 2.075000 1.700000 46.775002
v 2.025000 5.375000 46.100002
v -0.050001 3.250000 44.202850
v 12.225003 6.525000 51.424999
v 12.225003 6.525000 51.424999
v 15.550002 0.150000 51.425011
v 12.525002 7.049999 51.275013
v 7.775001 6.150000 50.050003
v 14.975002 0.150000 51.575012
vt 0.715562 0.912337
vt 0.880082 0.952874
vt 0.740722 0.983334
vt 0.793330 0.478530
vt 0.941740 0.453632
vt 0.994550 0.605116
vt 0.730733 0.703181
vt 0.786574 0.749348
vt 0.774114 0.750977
vt 0.890737 0.026636
vt 0.885405 0.066061
vt 0.854304 0.066012
vt 0.849004 0.131893
vt 0.744163 0.131278
vt 0.828081 0.115654
vt 0.523501 0.217664
vt 0.596729 0.033396
vt 0.616024 0.216295
vt 0.225812 0.171705
vt 0.122644 0.041559
vt 0.247525 0.167360
vt 0.690963 0.664986
vt 0.562200 0.638611
vt 0.562200 0.447389
vt 0.533551 0.747738
vt 0.537292 0.769198
vt 0.531975 0.768800
vt 0.537292 0.769198
vt 0.522453 0.967503
vt 0.531975 0.768800
vt 0.695288 0.878045
vt 0.758214 0.859951
vt 0.790151 0.802874
vt 0.950461 0.776231
vt 0.744119 0.067308
vt 0.743107 0.026636
vt 0.744073 0.116167
vt 0.289328 0.431846
vt 0.551301 0.581945
vt 0.265806 0.590540
vt 0.678636 0.268985
vt 0.707073 0.408770
vt 0.575555 0.436491
vt 0.265806 0.754494
vt 0.533551 0.747738
vt 0.523501 0.026443
vt 0.532687 0.426595
vt 0.575556 0.249480
vt 0.538867 0.748136
vt 0.963048 0.766013
vt 0.137075 0.411352
vt 0.122643 0.395930
vt 0.290656 0.820592
vt 0.388986 0.983334
vt 0.538867 0.748136
vt 0.715562 0.912337
vt 0.740722 0.983334
vt 0.880082 0.952874
vt 0.793330 0.478530
vt 0.994550 0.605116
vt 0.941740 0.453632
vt 0.730733 0.703181
vt 0.774114 0.750977
vt 0.786574 0.749348
vt 0.890737 0.026636
vt 0.854304 0.066012
vt 0.885405 0.066061
vt 0.849004 0.131893
vt 0.828081 0.115654
vt 0.523501 0.217664
vt 0.616024 0.216295
vt 0.596729 0.033396
vt 0.225812 0.171705
vt 0.247525 0.167360
vt 0.122644 0.041559
vt 0.690963 0.664986
vt 0.562200 0.447389
vt 0.562200 0.638611
vt 0.533551 0.747738
vt 0.531975 0.768800
vt 0.531975 0.768800
vt 0.758214 0.859951
vt 0.695288 0.878045
vt 0.790151 0.802874
vt 0.950461 0.776231
vt 0.289328 0.431846
vt 0.265806 0.590540
vt 0.678636 0.268985
vt 0.707073 0.408770
vt 0.265806 0.754494
vt 0.533551 0.747738
vt 0.523501 0.026443
vt 0.963048 0.766013
vt 0.122643 0.395930
vt 0.137075 0.411352
vt 0.290656 0.820592
vt 0.388986 0.983334
vt 0.894109 0.292019
vt 0.899601 0.174998
vt 0.994551 0.310494
vt 0.779096 0.180452
vt 0.717972 0.284046
vt 0.830535 0.163979
vt 0.984690 0.259717
vt 0.994018 0.373487
vt 0.915393 0.436491
vt 0.860197 0.409276
vt 0.725916 0.413567
vt 0.717972 0.180452
vt 0.972640 0.417181
vt 0.894109 0.292019
vt 0.994551 0.310494
vt 0.899601 0.174998
vt 0.779096 0.180452
vt 0.830535 0.163979
vt 0.984690 0.259717
vt 0.994018 0.373487
vt 0.860197 0.409276
vt 0.915393 0.436491
vt 0.972640 0.417181
vt 0.254907 0.699708
vt 0.186347 0.922621
vt 0.005976 0.921071
vt 0.116515 0.983334
vt 0.005449 0.982379
vt 0.005450 0.454241
vt 0.228566 0.551547
vt 0.254907 0.699708
vt 0.186347 0.922621
vt 0.116515 0.983334
vt 0.228566 0.551547
vt 0.099080 0.315775
vt 0.081927 0.449494
vt 0.064288 0.444551
vt 0.252781 0.061695
vt 0.302399 0.168306
vt 0.283253 0.175173
vt 0.415346 0.383706
vt 0.353674 0.353873
vt 0.419778 0.358054
vt 0.466644 0.373251
vt 0.475592 0.349875
vt 0.357163 0.257554
vt 0.295781 0.283068
vt 0.316487 0.221616
vt 0.316937 0.286162
vt 0.252781 0.380977
vt 0.302455 0.338514
vt 0.269109 0.394779
vt 0.283097 0.329479
vt 0.472221 0.263469
vt 0.081431 0.253048
vt 0.119127 0.306585
vt 0.295959 0.224168
vt 0.534925 0.380555
vt 0.551301 0.358239
vt 0.035692 0.032397
vt 0.089598 0.099533
vt 0.035692 0.216311
vt 0.361831 0.131114
vt 0.472522 0.135201
vt 0.269701 0.041001
vt 0.353674 0.383706
vt 0.064288 0.265826
vt 0.099080 0.315775
vt 0.252781 0.061695
vt 0.283253 0.175173
vt 0.302399 0.168306
vt 0.415346 0.383706
vt 0.419778 0.358054
vt 0.466644 0.373251
vt 0.475592 0.349875
vt 0.295781 0.283068
vt 0.316937 0.286162
vt 0.316487 0.221616
vt 0.252781 0.380977
vt 0.269109 0.394779
vt 0.302455 0.338514
vt 0.283097 0.329479
vt 0.472221 0.263469
vt 0.119127 0.306585
vt 0.081431 0.253048
vt 0.295959 0.224168
vt 0.534925 0.380555
vt 0.551301 0.358239
vt 0.035692 0.032397
vt 0.035692 0.216311
vt 0.089598 0.099533
vt 0.472522 0.135201
vt 0.269701 0.041001
vt 0.064288 0.265826
vn -0.1324 -0.9114 0.3897
vn -0.1567 -0.8620 0.4821
vn -0.1317 -0.8201 0.5569
vn -0.1379 -0.9886 -0.0608
vn 0.1628 -0.9383 -0.3049
vn 0.5626 -0.8267 -0.0053
vn -0.1916 -0.9781 0.0814
vn -0.2016 -0.9037 0.3777
vn -0.1340 -0.9384 0.3183
vn -0.9012 0.0053 0.4333
vn -0.9217 0.0111 0.3878
vn -0.9244 0.0057 0.3813
vn -0.9470 0.0049 0.3211
vn -0.9437 0.0000 0.3307
vn -0.9473 0.0027 0.3203
vn -0.5792 -0.8144 -0.0356
vn -0.9335 -0.3386 -0.1177
vn -0.7485 -0.6621 0.0365
vn -0.0154 -0.2828 0.9590
vn -0.3002 -0.4167 0.8580
vn -0.0318 -0.2913 0.9561
vn -0.2377 -0.9709 -0.0275
vn -0.6387 -0.7550 -0.1482
vn 0.2520 -0.0560 0.9661
vn 0.2524 0.0000 0.9676
vn 0.2517 -0.0725 0.9651
vn 0.6657 0.0000 0.7461
vn 0.4676 0.0000 0.8839
vn 0.6570 -0.1343 0.7418
vn -0.1907 -0.9475 0.2564
vn -0.1315 -0.9054 0.4038
vn -0.1920 -0.8643 0.4648
vn -0.2043 -0.8545 0.4776
vn -0.9216 0.0000 0.3880
vn -0.8916 0.0000 0.4528
vn -0.9467 0.0000 0.3220
vn 0.8913 -0.3659 -0.2677
vn 0.9999 0.0000 0.0119
vn 0.0708 0.0056 0.9975
vn 0.5379 -0.0900 0.8382
vn 0.4205 -0.8719 0.2510
vn 0.9343 -0.1949 0.2985
vn 0.9711 0.0000 -0.2385
vn 0.0743 0.0000 0.9972
vn 0.9544 0.0000 0.2986
vn 0.7057 -0.2414 0.6661
vn -0.1324 0.9114 0.3897
vn -0.1317 0.8201 0.5569
vn -0.1567 0.8620 0.4821
vn -0.1379 0.9886 -0.0608
vn 0.5626 0.8267 -0.0053
vn 0.1628 0.9383 -0.3049
vn -0.1916 0.9781 0.0814
vn -0.1340 0.9384 0.3183
vn -0.2016 0.9037 0.3777
vn -0.9012 -0.0053 0.4333
vn -0.9244 -0.0057 0.3813
vn -0.9217 -0.0111 0.3878
vn -0.9470 -0.0049 0.3211
vn -0.9473 -0.0027 0.3203
vn -0.5792 0.8144 -0.0356
vn -0.7485 0.6621 0.0365
vn -0.9335 0.3386 -0.1177
vn -0.0154 0.2828 0.9590
vn -0.0318 0.2913 0.9561
vn -0.3002 0.4167 0.8580
vn -0.2377 0.9709 -0.0275
vn -0.6387 0.7550 -0.1482
vn 0.2520 0.0560 0.9661
vn 0.2517 0.0725 0.9651
vn 0.6570 0.1343 0.7418
vn -0.1315 0.9054 0.4038
vn -0.1907 0.9475 0.2564
vn -0.1920 0.8643 0.4648
vn -0.2043 0.8545 0.4776
vn 0.8913 0.3659 -0.2677
vn 0.0708 -0.0056 0.9975
vn 0.5379 0.0900 0.8382
vn 0.4205 0.8719 0.2510
vn 0.9343 0.1949 0.2985
vn 0.7057 0.2414 0.6661
vn -0.6262 -0.6823 0.3772
vn -0.8042 -0.5133 0.2995
vn -0.1953 -0.9651 0.1745
vn -0.9349 -0.1162 0.3352
vn -0.8981 0.0000 0.4398
vn -0.9168 -0.1646 0.3637
vn -0.1992 -0.9796 -0.0237
vn -0.1756 -0.9019 0.3946
vn -0.1570 -0.8707 0.4661
vn -0.6003 -0.5536 0.5771
vn -0.7992 0.0000 0.6011
vn -0.9631 0.0000 0.2690
vn -0.2125 -0.8671 0.4505
vn -0.6262 0.6823 0.3772
vn -0.1953 0.9651 0.1745
vn -0.8042 0.5133 0.2995
vn -0.9349 0.1162 0.3352
vn -0.9168 0.1646 0.3637
vn -0.1992 0.9796 -0.0237
vn -0.1756 0.9019 0.3946
vn -0.6003 0.5536 0.5771
vn -0.1570 0.8707 0.4661
vn -0.2125 0.8671 0.4505
vn 0.1437 -0.0766 -0.9866
vn 0.2078 0.0000 -0.9781
vn 0.1057 0.0000 -0.9944
vn 0.0000 0.0000 -1.0000
vn 0.1037 0.0000 -0.9946
vn 0.0194 -0.0087 -0.9998
vn 0.1437 0.0766 -0.9866
vn 0.0194 0.0087 -0.9998
vn -0.7596 -0.3461 -0.5506
vn -0.9970 0.0000 -0.0765
vn -0.9984 0.0000 -0.0555
vn -0.4442 -0.1079 0.8894
vn -0.5613 0.0653 0.8250
vn -0.5838 0.0858 0.8073
vn -0.3098 -0.1400 0.9404
vn -0.6498 0.0000 0.7601
vn -0.5838 -0.1709 0.7937
vn -0.4217 -0.2616 0.8682
vn -0.5652 -0.2499 0.7861
vn -0.9957 0.0000 0.0927
vn -0.9067 0.0877 0.4125
vn -0.7908 0.1530 0.5926
vn -0.9072 0.0834 0.4123
vn -0.6071 -0.5463 -0.5770
vn -0.9776 -0.1943 -0.0804
vn -0.5787 -0.5596 -0.5932
vn -0.9806 -0.1854 -0.0636
vn -0.9863 -0.0683 0.1501
vn -0.6079 -0.4819 -0.6310
vn -0.7909 0.1548 0.5920
vn -0.4480 -0.1069 0.8876
vn -0.0155 -0.9990 -0.0423
vn -0.9393 0.0000 -0.3432
vn -0.9400 -0.0024 -0.3411
vn -0.3344 0.0000 0.9424
vn -0.7596 0.3461 -0.5506
vn -0.4442 0.1079 0.8894
vn -0.5838 -0.0858 0.8073
vn -0.5613 -0.0653 0.8250
vn -0.3098 0.1400 0.9404
vn -0.5838 0.1709 0.7937
vn -0.4217 0.2616 0.8682
vn -0.5652 0.2499 0.7861
vn -0.9067 -0.0877 0.4125
vn -0.9072 -0.0834 0.4123
vn -0.7908 -0.1530 0.5926
vn -0.6071 0.5463 -0.5770
vn -0.5787 0.5596 -0.5932
vn -0.9776 0.1943 -0.0804
vn -0.9806 0.1854 -0.0636
vn -0.9863 0.0683 0.1501
vn -0.6079 0.4819 -0.6310
vn -0.7909 -0.1548 0.5920
vn -0.4480 0.1069 0.8876
vn -0.0155 0.9990 -0.0423
vn -0.9400 0.0024 -0.3411
s 1
f 105/1/1 10/2/2 104/3/3
f 14/4/4 8/5/5 13/6/6
f 110/7/7 134/8/8 20/9/9
f 106/10/10 11/11/11 35/12/12
f 12/13/13 54/14/14 36/15/15
f 7/16/16 115/17/17 101/18/18
f 129/19/19 38/20/20 133/21/21
f 111/22/22 15/23/23 7/24/16
f 39/25/24 56/26/25 40/27/26
f 136/28/27 49/29/28 135/30/29
f 35/12/12 12/13/13 36/15/15
f 105/1/1 17/31/30 21/32/31
f 22/33/32 134/8/8 130/34/33
f 10/2/2 105/1/1 21/32/31
f 55/35/34 112/36/35 35/12/12
f 112/36/35 106/10/10 35/12/12
f 14/4/4 110/7/7 111/22/22
f 22/33/32 10/2/2 21/32/31
f 54/14/14 91/37/36 36/15/15
f 103/38/37 53/39/38 13/40/6
f 4/41/39 3/42/40 49/43/28
f 9/44/41 13/40/6 132/45/42
f 36/15/15 55/35/34 35/12/12
f 7/24/16 14/4/4 111/22/22
f 7/16/16 15/46/23 115/17/17
f 35/12/12 11/11/11 12/13/13
f 14/4/4 13/6/6 110/7/7
f 22/33/32 130/34/33 10/2/2
f 103/38/37 57/47/43 53/39/38
f 4/41/39 49/43/28 50/48/44
f 132/45/42 53/39/38 94/49/45
f 36/15/15 91/37/36 55/35/34
f 134/8/8 110/7/7 9/50/41
f 134/8/8 22/33/32 20/9/9
f 110/7/7 13/6/6 9/50/41
f 129/19/19 39/51/24 40/52/26
f 53/39/38 132/45/42 13/40/6
f 135/30/29 49/29/28 37/53/46
f 3/54/40 37/53/46 49/29/28
f 39/25/24 131/55/25 56/26/25
f 129/19/19 133/21/21 39/51/24
f 142/56/47 141/57/48 61/58/49
f 65/59/50 64/60/51 59/61/52
f 147/62/53 72/63/54 167/64/55
f 143/65/56 92/66/57 62/67/58
f 63/68/59 93/69/60 54/14/14
f 58/70/61 138/71/62 151/72/63
f 163/73/64 166/74/65 96/75/66
f 148/76/67 58/77/61 66/78/68
f 97/79/69 98/80/70 56/26/25
f 136/28/27 168/81/71 49/29/28
f 92/66/57 93/69/60 63/68/59
f 142/56/47 74/82/72 68/83/73
f 75/84/74 164/85/75 167/64/55
f 61/58/49 74/82/72 142/56/47
f 55/35/34 92/66/57 112/36/35
f 112/36/35 92/66/57 143/65/56
f 65/59/50 148/76/67 147/62/53
f 75/84/74 74/82/72 61/58/49
f 54/14/14 93/69/60 91/37/36
f 140/86/76 64/87/51 53/39/38
f 44/88/77 49/43/28 43/89/78
f 60/90/79 165/91/80 64/87/51
f 93/69/60 92/66/57 55/35/34
f 58/77/61 148/76/67 65/59/50
f 58/70/61 151/72/63 66/92/68
f 92/66/57 63/68/59 62/67/58
f 65/59/50 147/62/53 64/60/51
f 75/84/74 61/58/49 164/85/75
f 140/86/76 53/39/38 57/47/43
f 44/88/77 50/48/44 49/43/28
f 165/91/80 94/49/45 53/39/38
f 93/69/60 55/35/34 91/37/36
f 167/64/55 60/93/79 147/62/53
f 167/64/55 72/63/54 75/84/74
f 147/62/53 60/93/79 64/60/51
f 163/73/64 98/94/70 97/95/69
f 53/39/38 64/87/51 165/91/80
f 168/81/71 95/96/81 49/29/28
f 43/97/78 49/29/28 95/96/81
f 97/79/69 56/26/25 131/55/25
f 163/73/64 97/95/69 166/74/65
f 26/98/82 30/99/83 29/100/84
f 125/101/85 26/98/82 79/102/86
f 26/98/82 124/103/87 30/99/83
f 30/99/83 121/104/88 29/100/84
f 25/105/89 31/106/90 27/107/91
f 79/102/86 27/107/91 122/108/92
f 79/102/86 76/109/93 125/101/85
f 125/101/85 124/103/87 26/98/82
f 25/105/89 26/98/82 29/100/84
f 25/105/89 118/110/94 31/106/90
f 79/102/86 26/98/82 27/107/91
f 25/105/89 27/107/91 26/98/82
f 81/111/95 84/112/96 86/113/97
f 160/114/98 79/102/86 81/111/95
f 81/111/95 86/113/97 159/115/99
f 86/113/97 84/112/96 157/116/100
f 80/117/101 82/118/102 87/119/103
f 79/102/86 122/108/92 82/118/102
f 79/102/86 160/114/98 76/109/93
f 160/114/98 81/111/95 159/115/99
f 80/117/101 84/112/96 81/111/95
f 80/117/101 87/119/103 154/120/104
f 79/102/86 82/118/102 81/111/95
f 80/117/101 81/111/95 82/118/102
f 5/121/105 1/122/106 47/123/107
f 47/123/107 100/124/108 99/125/108
f 47/123/107 48/126/109 5/121/105
f 48/126/109 2/127/110 5/121/105
f 47/123/107 1/122/106 100/124/108
f 45/128/111 47/123/107 41/129/106
f 47/123/107 99/125/108 137/130/108
f 47/123/107 45/128/111 48/126/109
f 48/126/109 45/128/111 42/131/112
f 47/123/107 137/130/108 41/129/106
f 116/132/113 73/133/114 85/134/115
f 123/135/116 18/136/117 28/137/118
f 34/138/119 70/139/120 24/140/121
f 33/141/122 24/140/121 114/142/123
f 24/140/121 70/139/120 52/143/124
f 119/144/125 19/145/126 113/146/127
f 117/147/128 109/148/129 108/149/130
f 32/150/131 113/146/127 109/148/129
f 24/140/121 128/151/132 114/142/123
f 116/132/113 108/152/130 107/153/133
f 120/154/134 18/136/117 19/145/126
f 123/155/116 114/142/123 127/156/135
f 24/140/121 52/143/124 128/151/132
f 23/157/136 16/158/136 102/159/136
f 52/143/124 51/160/137 6/161/138
f 116/132/113 107/153/133 73/133/114
f 123/135/116 127/162/135 18/136/117
f 34/138/119 126/163/139 70/139/120
f 33/141/122 34/138/119 24/140/121
f 119/144/125 120/154/134 19/145/126
f 117/147/128 32/150/131 109/148/129
f 32/150/131 119/144/125 113/146/127
f 116/132/113 117/164/128 108/152/130
f 120/154/134 28/137/118 18/136/117
f 123/155/116 33/141/122 114/142/123
f 52/143/124 6/161/138 128/151/132
f 152/165/140 85/134/115 73/133/114
f 158/166/141 83/167/142 69/168/143
f 90/169/144 78/170/145 70/139/120
f 89/171/146 150/172/147 78/170/145
f 78/170/145 52/143/124 70/139/120
f 155/173/148 149/174/149 71/175/150
f 153/176/151 145/177/152 146/178/153
f 88/179/154 146/178/153 149/174/149
f 78/170/145 150/172/147 162/180/155
f 152/165/140 144/181/156 145/182/152
f 156/183/157 71/175/150 69/168/143
f 158/184/141 161/185/158 150/172/147
f 78/170/145 162/180/155 52/143/124
f 77/186/159 139/187/159 67/188/159
f 52/143/124 46/189/160 51/160/137
f 152/165/140 73/133/114 144/181/156
f 158/166/141 69/168/143 161/190/158
f 90/169/144 70/139/120 126/163/139
f 89/171/146 78/170/145 90/169/144
f 155/173/148 71/175/150 156/183/157
f 153/176/151 146/178/153 88/179/154
f 88/179/154 149/174/149 155/173/148
f 152/165/140 145/182/152 153/191/151
f 156/183/157 69/168/143 83/167/142
f 158/184/141 150/172/147 89/171/146
f 52/143/124 162/180/155 46/189/160
